HIERARCHY
ROOT Hips
{
	OFFSET 0.000000 0.000000 0.000000
	CHANNELS 6 Xposition Yposition Zposition Xrotation Yrotation Zrotation
	JOINT LeftUpLeg_virtual
	{
		OFFSET 0.000000 0.000000 0.000000
		CHANNELS 3 Xrotation Yrotation Zrotation
		JOINT LeftUpLeg
		{
			OFFSET 11.394100 -6.187798 -0.413800
			CHANNELS 3 Xrotation Yrotation Zrotation
			JOINT LeftLeg
			{
				OFFSET 0.430247 -32.302673 3.732800
				CHANNELS 3 Xrotation Yrotation Zrotation
				JOINT LeftFoot
				{
					OFFSET -0.430247 -48.264931 -6.423300
					CHANNELS 3 Xrotation Yrotation Zrotation
					JOINT LeftToeBase
					{
						OFFSET 4.230900 -16.068199 23.438400
						CHANNELS 3 Xrotation Yrotation Zrotation
						JOINT LeftToe_End
						{
							OFFSET 4.510700 0.695400 19.974600
							CHANNELS 3 Xrotation Yrotation Zrotation
							End Site
							{
								OFFSET 0 0 0
							}
						}
					}
				}
			}
		}
	}
	JOINT RightUpLeg_virtual
	{
		OFFSET 0.000000 0.000000 0.000000
		CHANNELS 3 Xrotation Yrotation Zrotation
		JOINT RightUpLeg
		{
			OFFSET -11.333700 -6.187798 -0.413800
			CHANNELS 3 Xrotation Yrotation Zrotation
			JOINT RightLeg
			{
				OFFSET -0.430392 -32.302628 3.733000
				CHANNELS 3 Xrotation Yrotation Zrotation
				JOINT RightFoot
				{
					OFFSET 0.430392 -48.264973 -6.423500
					CHANNELS 3 Xrotation Yrotation Zrotation
					JOINT RightToeBase
					{
						OFFSET -4.230900 -16.068199 23.438400
						CHANNELS 3 Xrotation Yrotation Zrotation
						JOINT RightToe_End
						{
							OFFSET -4.510700 0.695400 19.974600
							CHANNELS 3 Xrotation Yrotation Zrotation
							End Site
							{
								OFFSET 0 0 0
							}
						}
					}
				}
			}
		}
	}
	JOINT Spine_virtual
	{
		OFFSET 0.000000 0.000000 0.000000
		CHANNELS 3 Xrotation Yrotation Zrotation
		JOINT Spine
		{
			OFFSET -0.002400 12.777504 0.315300
			CHANNELS 3 Xrotation Yrotation Zrotation
			JOINT Spine1
			{
				OFFSET -0.002067 5.816869 0.032633
				CHANNELS 3 Xrotation Yrotation Zrotation
				JOINT Spine1_split
				{
					OFFSET -0.002067 5.816869 0.032633
					CHANNELS 3 Xrotation Yrotation Zrotation
					JOINT Spine2
					{
						OFFSET -0.002067 5.816869 0.032633
						CHANNELS 3 Xrotation Yrotation Zrotation
						JOINT Neck_virtual
						{
							OFFSET 0.000000 0.000000 0.000000
							CHANNELS 3 Xrotation Yrotation Zrotation
							JOINT Neck
							{
								OFFSET -0.003700 21.199493 -0.826900
								CHANNELS 3 Xrotation Yrotation Zrotation
								JOINT Head
								{
									OFFSET 0.000000 20.442200 4.834800
									CHANNELS 3 Xrotation Yrotation Zrotation
									JOINT HeadTop_End
									{
										OFFSET 0.000000 34.668396 4.968400
										CHANNELS 3 Xrotation Yrotation Zrotation
										End Site
										{
											OFFSET 0 0 0
										}
									}
								}
							}
						}
						JOINT LeftShoulder_virtual
						{
							OFFSET 0.000000 0.000000 0.000000
							CHANNELS 3 Xrotation Yrotation Zrotation
							JOINT LeftShoulder
							{
								OFFSET 3.288150 8.794197 -1.372250
								CHANNELS 3 Xrotation Yrotation Zrotation
								JOINT LeftShoulder_split
								{
									OFFSET 3.288150 8.794197 -1.372250
									CHANNELS 3 Xrotation Yrotation Zrotation
									JOINT LeftArm
									{
										OFFSET 11.953299 -2.279007 -0.146200
										CHANNELS 3 Xrotation Yrotation Zrotation
										JOINT LeftForeArm
										{
											OFFSET 18.448900 0.000000 0.000000
											CHANNELS 3 Xrotation Yrotation Zrotation
											JOINT LeftHand
											{
												OFFSET 29.527798 0.000000 0.000000
												CHANNELS 3 Xrotation Yrotation Zrotation
												End Site
												{
													OFFSET 0 0 0
												}
											}
										}
									}
								}
							}
						}
						JOINT RightShoulder_virtual
						{
							OFFSET 0.000000 0.000000 0.000000
							CHANNELS 3 Xrotation Yrotation Zrotation
							JOINT RightShoulder
							{
								OFFSET -3.249400 8.794197 -1.372250
								CHANNELS 3 Xrotation Yrotation Zrotation
								JOINT RightShoulder_split
								{
									OFFSET -3.249400 8.794197 -1.372250
									CHANNELS 3 Xrotation Yrotation Zrotation
									JOINT RightArm
									{
										OFFSET -11.953299 -2.279007 -0.146200
										CHANNELS 3 Xrotation Yrotation Zrotation
										JOINT RightForeArm
										{
											OFFSET -18.448900 0.000000 0.000000
											CHANNELS 3 Xrotation Yrotation Zrotation
											JOINT RightHand
											{
												OFFSET -29.527802 0.000000 0.000000
												CHANNELS 3 Xrotation Yrotation Zrotation
												End Site
												{
													OFFSET 0 0 0
												}
											}
										}
									}
								}
							}
						}
					}
				}
			}
		}
	}
}
MOTION
Frames: 7
Frame Time: 0.03333333
9.004800 97.818512 11.163928 0.000000 0.000000 0.000000 -1.921727 6.802289 -5.418800 1.944923 9.275021 10.051393 20.702116 -5.331816 0.741258 -18.194340 3.090191 2.095581 -3.445159 -0.745177 0.401568 0.000000 0.000000 0.000000 -1.356211 6.813223 -5.748349 -44.868599 -7.301907 -4.989400 32.798271 -3.188738 -2.155166 10.931282 3.917046 4.376439 2.131118 0.902935 2.053508 0.000000 0.000000 0.000000 -1.498049 6.221679 -5.606535 12.062672 -0.543412 3.740611 0.286831 -1.656128 0.915477 0.890141 -0.512836 0.351828 0.000000 0.000000 0.000000 -3.073689 -1.568534 1.100963 -1.581375 -1.215246 5.289465 -3.894379 0.307619 -4.813728 0.000000 0.000000 0.000000 -3.406045 -1.754840 1.009068 0.497161 -1.742438 -2.834704 -1.115622 -0.046187 0.219612 -0.583598 -11.329077 -74.123754 10.646441 -11.972236 -3.612069 0.000000 0.000000 0.000000 -3.402924 -1.899031 1.044101 2.572023 0.276995 7.845892 -3.727181 0.692948 -1.866673 2.529377 10.146644 71.416957 11.054763 18.546979 3.775581 0.000000 0.000000 0.000000 
9.248827 97.285667 13.303336 0.000000 0.000000 0.000000 -1.760366 7.139860 -5.827099 4.408546 9.180211 10.061982 19.836008 -6.102925 1.184743 -19.388651 3.263627 1.574035 -4.346795 -0.829393 0.280747 0.000000 0.000000 0.000000 -1.060937 6.846511 -6.211734 -46.778227 -6.753052 -4.722723 27.124129 -1.526658 -2.614382 12.599631 4.642582 5.399628 3.186116 -0.569195 1.144673 0.000000 0.000000 0.000000 -1.207105 6.391274 -5.910013 11.973583 -0.752296 3.862237 0.126546 -1.816129 1.000877 0.874076 -0.520096 0.371425 0.000000 0.000000 0.000000 -3.183955 -1.694461 1.190610 -1.855807 -1.277309 5.164922 -4.282585 0.151639 -5.482280 0.000000 0.000000 0.000000 -3.564224 -1.861221 1.013269 0.509606 -1.847363 -2.815429 -1.043787 0.191040 0.338009 -1.096459 -12.123240 -73.957766 10.713271 -12.507537 -4.074523 0.000000 0.000000 0.000000 -3.413889 -1.989296 1.125394 2.690320 -0.380586 7.898031 -3.700832 0.444125 -2.050514 2.644117 10.433556 71.230397 10.776234 18.024659 4.755113 0.000000 0.000000 0.000000 
9.395710 96.791222 15.524984 0.000000 0.000000 0.000000 -1.583122 7.555980 -6.198655 6.704045 8.833823 10.295772 19.017550 -6.647254 1.600199 -20.048393 3.655640 1.219951 -4.722539 -0.916216 -0.088496 0.000000 0.000000 0.000000 -0.844971 7.193402 -6.657554 -48.495354 -6.168774 -4.539895 22.428159 0.012307 -2.876261 14.771440 5.308732 5.846490 3.283391 -1.985662 0.453626 0.000000 0.000000 0.000000 -0.998854 6.545178 -6.219247 12.126875 -1.160535 3.822152 -0.052624 -2.039991 1.230122 0.733578 -0.406268 0.364401 0.000000 0.000000 0.000000 -3.311060 -1.902680 1.434594 -2.280118 -1.304654 4.898781 -4.723358 -0.045832 -6.067761 0.000000 0.000000 0.000000 -3.748841 -2.042593 1.178820 0.504002 -1.991032 -3.090356 -1.129918 0.514976 0.301849 -1.257203 -13.074417 -73.563733 10.797485 -12.815233 -4.482037 0.000000 0.000000 0.000000 -3.515328 -2.164650 1.342612 2.798391 -0.953374 7.747174 -3.657355 0.413744 -2.156241 2.881879 10.872935 71.331197 10.402765 17.650474 5.492301 0.000000 0.000000 0.000000 
9.434589 96.316284 17.824085 0.000000 0.000000 0.000000 -1.409148 7.960539 -6.562671 9.041526 8.384090 10.782663 18.106932 -6.916930 1.995034 -20.558917 4.234249 0.907400 -4.406646 -1.026986 -0.551809 0.000000 0.000000 0.000000 -0.749834 7.721598 -7.061065 -50.188541 -5.716247 -4.472840 18.912941 1.057123 -2.953007 16.938907 5.600391 5.360481 3.192490 -3.140750 0.135849 0.000000 0.000000 0.000000 -0.875567 6.596114 -6.530066 12.460436 -1.644124 3.678849 -0.247157 -2.291442 1.530178 0.646050 -0.133584 0.309817 0.000000 0.000000 0.000000 -3.418359 -2.156012 1.749640 -2.856589 -1.318295 4.581772 -5.209742 -0.275811 -6.513903 0.000000 0.000000 0.000000 -3.930321 -2.270046 1.440511 0.477678 -2.108853 -3.555571 -1.335793 0.781848 0.217104 -1.119845 -14.123707 -73.036654 10.877637 -13.045680 -4.807531 0.000000 0.000000 0.000000 -3.668756 -2.395070 1.620743 2.855507 -1.443821 7.438586 -3.587102 0.601405 -2.109757 3.166011 11.356034 71.715265 9.948949 17.540725 5.990329 0.000000 0.000000 0.000000 
9.355438 95.775581 20.202715 0.000000 0.000000 0.000000 -1.273796 8.371232 -6.874249 11.401861 8.096968 11.463555 16.915351 -7.184744 2.306796 -21.044988 4.814461 -0.072477 -4.407188 -1.242695 -0.607636 0.000000 0.000000 0.000000 -0.747346 8.292467 -7.374211 -51.865397 -5.487847 -4.580551 16.978150 1.568892 -2.856804 19.059986 5.510384 4.146420 3.126161 -3.863383 0.129765 0.000000 0.000000 0.000000 -0.906467 6.536044 -6.737217 12.925664 -2.074061 3.518064 -0.460584 -2.519468 1.812229 0.550336 0.357317 0.160528 0.000000 0.000000 0.000000 -3.501734 -2.401978 2.029445 -3.531700 -1.316759 4.298718 -5.671747 -0.503965 -6.805487 0.000000 0.000000 0.000000 -4.081613 -2.489161 1.697838 0.442932 -2.127663 -4.073079 -1.543623 0.714712 0.129709 -0.853898 -15.130865 -72.528604 10.938092 -13.377327 -5.043159 0.000000 0.000000 0.000000 -3.819915 -2.621296 1.861631 2.869292 -1.867995 7.074616 -3.482301 0.921534 -1.881137 3.332585 11.689993 72.287594 9.436651 17.718325 6.303131 0.000000 0.000000 0.000000 
9.121986 95.153473 22.661152 0.000000 0.000000 0.000000 -1.166677 8.795129 -7.043259 13.860436 8.183031 12.009842 15.425835 -7.304663 2.463175 -21.650486 5.188810 -1.462869 -5.847822 -1.680818 0.049402 0.000000 0.000000 0.000000 -0.817646 8.878162 -7.538587 -53.484735 -5.456764 -4.898011 16.696380 1.657237 -2.627871 21.493526 5.237135 2.682008 2.706945 -4.089482 0.188756 0.000000 0.000000 0.000000 -1.065282 6.461250 -6.771704 13.446156 -2.344885 3.385339 -0.690830 -2.687541 1.995562 0.575769 0.849330 0.046724 0.000000 0.000000 0.000000 -3.577304 -2.584658 2.187098 -4.212374 -1.308163 4.093522 -6.085045 -0.699992 -6.921849 0.000000 0.000000 0.000000 -4.212120 -2.646042 1.877641 0.405630 -1.972931 -4.493361 -1.695148 0.263499 0.099217 -0.651059 -15.901898 -72.187156 10.972263 -13.935160 -5.190686 0.000000 0.000000 0.000000 -3.934936 -2.794251 1.977174 2.840992 -2.205582 6.734427 -3.388261 1.162036 -1.488290 3.237666 11.831062 72.917358 8.894627 18.079010 6.479132 0.000000 0.000000 0.000000 
8.757289 94.513000 25.181778 0.000000 0.000000 0.000000 -1.241365 9.255204 -6.990107 15.998466 8.602351 12.387937 14.535843 -7.736682 2.482070 -21.341117 5.430891 -3.886045 -8.673488 -2.307184 1.425374 0.000000 0.000000 0.000000 -0.892655 9.362948 -7.486510 -54.969731 -5.536402 -5.328578 17.665907 1.591839 -2.284972 24.286648 5.014126 1.581640 1.927849 -3.892610 0.158950 0.000000 0.000000 0.000000 -1.357522 6.527985 -6.584913 13.983159 -2.436985 3.312556 -0.948903 -2.776908 2.028826 0.731712 1.244157 0.011514 0.000000 0.000000 0.000000 -3.680890 -2.680947 2.187590 -4.829631 -1.299724 3.985545 -6.382874 -0.826972 -6.921795 0.000000 0.000000 0.000000 -4.343098 -2.716520 1.923643 0.390681 -1.642497 -4.743701 -1.703555 -0.478238 0.288989 -0.616999 -16.223386 -72.107646 10.946267 -14.675554 -5.280921 0.000000 0.000000 0.000000 -3.976983 -2.883186 1.935923 2.816637 -2.435889 6.524733 -3.315946 1.193766 -1.004350 2.814131 11.794385 73.449293 8.375095 18.533252 6.551634 0.000000 0.000000 0.000000 
